<svg width="12" height="12" viewBox="0 0 12 12" fill="none" xmlns="http://www.w3.org/2000/svg">
<path d="M10.82 8.17314L9.12669 7.9798C8.92758 7.95642 8.72577 7.97846 8.5364 8.04428C8.34703 8.1101 8.17505 8.21797 8.03336 8.3598L6.80669 9.58647C4.91415 8.62395 3.37588 7.08568 2.41336 5.19314L3.64669 3.9598C3.93336 3.67314 4.07336 3.27314 4.02669 2.86647L3.83336 1.18647C3.79556 0.861255 3.63949 0.561295 3.39485 0.343702C3.15021 0.12611 2.8341 0.00608156 2.50669 0.00647067H1.35336C0.600027 0.00647067 -0.0266396 0.633137 0.0200271 1.38647C0.37336 7.0798 4.92669 11.6265 10.6134 11.9798C11.3667 12.0265 11.9934 11.3998 11.9934 10.6465V9.49314C12 8.8198 11.4934 8.25314 10.82 8.17314Z" fill="#525F75"/>
</svg>
